<svg width="410" height="118" viewBox="0 0 410 118" fill="none" xmlns="http://www.w3.org/2000/svg">
<path d="M0.346057 60.6648L21.0324 7.02477C21.3122 6.12639 21.8847 5.3469 22.6593 4.80991C23.4339 4.27292 24.3661 4.0092 25.3081 4.06058H30.9683C31.9184 3.99247 32.8635 4.24886 33.648 4.78761C34.4325 5.32635 35.0097 6.11535 35.2847 7.02477L56.2154 60.6445C57.1723 63.1621 56.0321 64.9081 53.3242 64.9081H49.2521C48.2973 64.9746 47.348 64.7182 46.5574 64.1804C45.7668 63.6425 45.1811 62.8546 44.8949 61.9439L41.3929 53.0106H14.9242L11.524 61.9642C11.2777 62.8425 10.742 63.6126 10.0033 64.1503C9.2646 64.688 8.36586 64.9621 7.45189 64.9284H3.2169C0.529309 64.9284 -0.610888 63.1824 0.346057 60.6648ZM38.6035 43.8947L28.1382 15.6331L17.6932 43.8947H38.6035Z" fill="#FFF3C3"/>
<path d="M54.9937 37.9663V19.3892C54.9529 18.9551 55.0086 18.5174 55.1568 18.1073C55.3051 17.6971 55.5422 17.3246 55.8514 17.0163C56.1605 16.708 56.5341 16.4715 56.9454 16.3237C57.3568 16.1759 57.7957 16.1203 58.231 16.1611H61.5498C61.9812 16.1219 62.4158 16.1792 62.8222 16.3288C63.2285 16.4784 63.5963 16.7165 63.8986 17.0258C64.201 17.3351 64.4303 17.7077 64.5699 18.1166C64.7096 18.5254 64.7559 18.9602 64.7057 19.3892V37.479C64.7057 44.0165 67.5765 47.0214 71.5672 47.0214C75.5578 47.0214 81.442 44.0775 81.442 34.8397V19.3486C81.4007 18.9127 81.4568 18.473 81.6062 18.0612C81.7556 17.6495 81.9946 17.2758 82.3061 16.9672C82.6176 16.6585 82.9938 16.4225 83.4077 16.2761C83.8215 16.1297 84.2628 16.0766 84.6997 16.1205H87.9981C88.4311 16.0781 88.8681 16.1329 89.277 16.2811C89.6859 16.4292 90.0563 16.6669 90.361 16.9766C90.6657 17.2862 90.8969 17.66 91.0377 18.0705C91.1784 18.481 91.2251 18.9178 91.1744 19.3486V51.1631C91.2197 51.5892 91.1686 52.0201 91.0247 52.4239C90.8808 52.8277 90.6479 53.1941 90.343 53.4961C90.0382 53.7982 89.6692 54.0281 89.2634 54.169C88.8575 54.3098 88.4252 54.3581 87.9981 54.3101H84.6997C84.2679 54.3635 83.8296 54.3197 83.417 54.182C83.0044 54.0442 82.628 53.816 82.3155 53.5141C82.003 53.2122 81.7623 52.8443 81.6112 52.4375C81.46 52.0307 81.4022 51.5952 81.442 51.1631V47.6305C79.7114 52.4422 75.1914 55.2237 69.2257 55.2237C59.9617 55.1831 54.9937 48.4222 54.9937 37.9663Z" fill="#FFF3C3"/>
<path d="M96.3662 47.6304C95.3685 45.6001 96.3662 44.1586 98.4022 43.5698L100.438 43.1232C102.23 42.6765 103.146 43.509 104.51 44.9302C105.304 45.8142 106.282 46.514 107.376 46.9805C108.47 47.447 109.653 47.6689 110.843 47.6304C114.161 47.6304 116.503 45.8234 116.503 43.4277C116.503 41.3974 114.915 40.3417 112.431 39.3671L107.524 37.6211C102.617 36.1187 97.3435 33.1139 97.3435 26.8809C97.3435 20.1201 102.922 15.1459 110.843 15.1459C113.197 14.9715 115.555 15.4477 117.656 16.5223C119.758 17.5968 121.521 19.228 122.753 21.2367C124.036 23.267 122.977 24.7694 120.86 25.2973L119.129 25.744C118.379 25.9656 117.577 25.9389 116.843 25.6681C116.109 25.3973 115.482 24.8969 115.057 24.2416C114.551 23.6692 113.922 23.2171 113.217 22.9185C112.513 22.6199 111.75 22.4823 110.985 22.5158C110.403 22.4307 109.809 22.4724 109.245 22.638C108.681 22.8036 108.159 23.0892 107.716 23.4751C107.273 23.861 106.919 24.338 106.678 24.8734C106.438 25.4088 106.316 25.9898 106.322 26.5764C106.322 28.6067 108.135 29.6624 110.232 30.3527L115.363 32.1393C122.977 34.5554 125.4 38.9814 125.543 43.3465C125.543 51.021 118.763 55.0816 110.924 55.0816C104.368 55.1831 98.9316 52.6249 96.3662 47.6304Z" fill="#FFF3C3"/>
<path d="M130.307 51.2037V3.14692C130.262 2.7208 130.313 2.28995 130.457 1.88617C130.601 1.48239 130.834 1.11599 131.139 0.813963C131.443 0.511933 131.812 0.281963 132.218 0.141085C132.624 0.000207771 133.057 -0.0479778 133.484 3.96557e-06H136.863C137.29 -0.0479778 137.723 0.000207771 138.129 0.141085C138.535 0.281963 138.903 0.511933 139.208 0.813963C139.513 1.11599 139.746 1.48239 139.89 1.88617C140.034 2.28995 140.085 2.7208 140.04 3.14692V51.2037C140.085 51.6298 140.034 52.0607 139.89 52.4645C139.746 52.8682 139.513 53.2346 139.208 53.5367C138.903 53.8387 138.535 54.0686 138.129 54.2095C137.723 54.3504 137.29 54.3986 136.863 54.3506H133.484C133.057 54.3986 132.624 54.3504 132.218 54.2095C131.812 54.0686 131.443 53.8387 131.139 53.5367C130.834 53.2346 130.601 52.8682 130.457 52.4645C130.313 52.0607 130.262 51.6298 130.307 51.2037Z" fill="#FFF3C3"/>
<path d="M143.501 35.266C143.501 24.1197 151.116 15.3286 162.192 15.3286C164.732 15.2375 167.253 15.7893 169.521 16.9325C171.789 18.0757 173.729 19.773 175.162 21.8661V19.3892C175.111 18.9583 175.158 18.5216 175.298 18.1111C175.439 17.7006 175.67 17.3268 175.975 17.0171C176.28 16.7075 176.65 16.4698 177.059 16.3217C177.468 16.1735 177.905 16.1186 178.338 16.161H181.657C182.092 16.1203 182.531 16.1758 182.942 16.3237C183.354 16.4715 183.727 16.708 184.036 17.0163C184.345 17.3245 184.583 17.6971 184.731 18.1072C184.879 18.5174 184.935 18.9551 184.894 19.3892V51.2037C184.933 51.6339 184.876 52.0673 184.726 52.4725C184.576 52.8777 184.337 53.2444 184.027 53.5459C183.717 53.8473 183.343 54.076 182.933 54.2153C182.523 54.3545 182.087 54.4007 181.657 54.3506H178.338C177.911 54.3986 177.478 54.3504 177.073 54.2095C176.667 54.0686 176.298 53.8387 175.993 53.5367C175.688 53.2347 175.455 52.8683 175.311 52.4645C175.167 52.0607 175.116 51.6298 175.162 51.2037V48.6456C173.729 50.7387 171.789 52.436 169.521 53.5792C167.253 54.7224 164.732 55.2742 162.192 55.1831C151.116 55.1831 143.501 46.3919 143.501 35.266ZM175.324 35.266C175.324 28.4239 170.804 23.3685 164.085 23.3685C157.366 23.3685 153.233 28.7894 153.233 35.266C153.233 41.7426 157.305 47.1432 164.085 47.1432C170.866 47.1432 175.243 42.108 175.324 35.266Z" fill="#FFF3C3"/>
<path d="M192.203 51.2037V19.3892C192.153 18.9583 192.199 18.5216 192.34 18.1111C192.481 17.7006 192.712 17.3268 193.017 17.0171C193.322 16.7075 193.692 16.4698 194.101 16.3217C194.51 16.1735 194.947 16.1186 195.38 16.161H198.698C199.134 16.1203 199.573 16.1759 199.984 16.3237C200.395 16.4715 200.769 16.708 201.078 17.0163C201.387 17.3246 201.624 17.6971 201.773 18.1072C201.921 18.5174 201.977 18.9551 201.936 19.3892V22.9218C203.666 18.1101 208.186 15.3286 214.152 15.3286C223.498 15.3286 228.404 22.0895 228.404 32.5454V51.2037C228.444 51.6339 228.386 52.0673 228.236 52.4725C228.086 52.8777 227.847 53.2444 227.537 53.5459C227.227 53.8473 226.853 54.076 226.443 54.2153C226.033 54.3545 225.597 54.4007 225.167 54.3506H221.848C221.421 54.3986 220.989 54.3504 220.583 54.2095C220.177 54.0686 219.808 53.8387 219.504 53.5367C219.199 53.2346 218.966 52.8683 218.822 52.4645C218.678 52.0607 218.627 51.6298 218.672 51.2037V32.9312C218.672 26.3937 215.801 23.3888 211.811 23.3888C207.82 23.3888 201.936 26.3327 201.936 35.5705V51.0616C201.975 51.4917 201.918 51.9252 201.768 52.3304C201.618 52.7356 201.379 53.1023 201.069 53.4038C200.758 53.7053 200.385 53.934 199.975 54.0732C199.565 54.2124 199.129 54.2586 198.698 54.2085H195.38C194.966 54.2533 194.547 54.2077 194.152 54.0749C193.757 53.9421 193.396 53.7252 193.094 53.4393C192.792 53.1534 192.556 52.8054 192.402 52.4193C192.248 52.0333 192.18 51.6185 192.203 51.2037Z" fill="#FFF3C3"/>
<path d="M130.267 99.9508V61.8424H139.551V99.8899L130.267 99.9508Z" fill="#FFD220"/>
<path d="M151.91 105.351C155.408 108.255 159.799 109.875 164.35 109.94C170.906 109.94 176.566 106.935 176.566 98.7529V94.3269C175.084 96.3794 173.123 98.0414 170.853 99.1697C168.583 100.298 166.071 100.859 163.536 100.803C152.215 100.803 144.824 91.9311 144.824 80.8052C144.824 70.0447 151.91 61.0912 163.597 61.0912C166.125 61.0265 168.631 61.5835 170.893 62.713C173.155 63.8425 175.103 65.5098 176.566 67.5678V61.8424H185.851V95.7481C185.851 111.462 177.706 117.939 165.49 117.939C157.183 117.939 151.991 115.604 148.224 112.518C149.507 110.163 150.708 107.767 151.91 105.351ZM165.327 93.0275C166.877 93.0861 168.422 92.8177 169.861 92.2398C171.299 91.662 172.599 90.7876 173.676 89.6741C174.752 88.5605 175.58 87.2329 176.107 85.778C176.633 84.3231 176.845 82.7738 176.729 81.2315C176.729 73.8616 171.965 68.8265 165.103 68.8265C158.242 68.8265 154.109 74.3083 154.109 80.8458C154.109 87.3833 158.405 93.0275 165.327 93.0275Z" fill="#FFD220"/>
<path d="M193.242 61.8424H202.506V68.2378C203.613 65.9454 205.38 64.0337 207.581 62.7464C209.782 61.4592 212.318 60.8547 214.865 61.01C224.373 61.01 228.974 67.852 228.974 78.8358V99.8899H219.69V78.978C219.69 72.3593 216.901 68.8266 212.299 68.8266C206.883 68.8266 202.506 72.8871 202.506 80.8661V99.8899H193.242V61.8424Z" fill="#FFD220"/>
<path d="M258.233 100.783C255.679 100.876 253.143 100.324 250.862 99.1775C248.58 98.0309 246.626 96.3274 245.182 94.2254V99.9508H235.917V45.6002H245.182V67.5678C246.646 65.5112 248.594 63.8448 250.856 62.7155C253.117 61.5861 255.623 61.0283 258.151 61.0912C269.838 61.0912 276.924 70.0447 276.924 80.8052C276.924 91.9109 269.533 100.783 258.233 100.783ZM256.563 68.8266C249.702 68.8266 245.039 73.8617 245.039 81.2316C245.039 88.6015 250.007 93.0275 256.339 93.0275C263.282 93.0275 267.578 87.627 267.578 80.8458C267.578 74.0647 263.587 68.8266 256.563 68.8266Z" fill="#FFD220"/>
<path d="M322.022 61.8424V99.8899H312.738V94.3269C311.297 96.4273 309.346 98.13 307.068 99.2766C304.79 100.423 302.257 100.976 299.707 100.885C288.386 100.885 280.996 92.0124 280.996 80.8865C280.996 70.126 288.081 61.1724 299.768 61.1724C302.297 61.1096 304.802 61.6673 307.063 62.7966C309.325 63.926 311.274 65.5923 312.738 67.649V61.8424H322.022ZM301.662 92.9666C303.211 93.0256 304.755 92.7572 306.192 92.1791C307.63 91.601 308.929 90.7264 310.004 89.6124C311.079 88.4985 311.905 87.1706 312.429 85.7157C312.953 84.2608 313.162 82.7119 313.043 81.1707C313.043 73.8008 308.299 68.7657 301.438 68.7657C294.576 68.7657 290.423 74.2474 290.423 80.7849C290.423 87.3224 294.637 93.0275 301.58 93.0275L301.662 92.9666Z" fill="#FFD220"/>
<path d="M329.556 61.8424H338.84V68.2377C339.943 65.9419 341.709 64.0271 343.911 62.7392C346.113 61.4513 348.651 60.8491 351.199 61.0099C360.707 61.0099 365.288 67.852 365.288 78.8358V99.8898H356.024V78.978C356.024 72.3592 353.235 68.8265 348.633 68.8265C343.197 68.8265 338.84 72.8871 338.84 80.8661V99.8898H329.556V61.8424Z" fill="#FFD220"/>
<path d="M393.488 61.8424H403.668V62.9794L390.393 79.2216L396.135 88.0939C398.171 90.9566 399.29 92.317 402.08 92.317C403.686 92.3021 405.254 91.8302 406.6 90.9566L409.919 97.352C407.427 99.5983 404.154 100.786 400.797 100.661C394.994 100.661 391.757 97.4941 389.11 93.7381L381.434 81.4144V99.829H372.15V45.6002H381.434V77.638L393.488 61.8424Z" fill="#FFD220"/>
<path d="M100.683 87.8503C101.232 89.5389 102.333 90.9958 103.808 91.989C105.284 92.9823 107.051 93.4551 108.827 93.3321C111.535 93.3321 114.548 92.3575 114.548 89.2715C114.548 87.2412 112.736 86.1855 110.476 85.211L104.897 83.1807C97.2823 80.318 95.3074 76.0341 95.3074 72.5826C95.3074 65.5172 101.416 61.0709 109.254 61.0709C114.08 61.0709 120.127 62.7357 122.611 69.5778L115.139 72.2781C114.74 71.0796 113.954 70.0468 112.904 69.3414C111.854 68.636 110.599 68.2978 109.336 68.3799C108.74 68.3097 108.137 68.3601 107.561 68.5279C106.985 68.6958 106.45 68.9777 105.986 69.3567C105.522 69.7358 105.14 70.2043 104.862 70.7342C104.584 71.264 104.416 71.8444 104.368 72.4405C104.368 74.4707 106.241 75.5874 108.44 76.3386L114.1 78.3689C122.244 81.0895 123.812 85.9622 123.812 89.2715C123.812 96.8039 116.808 100.864 108.888 100.864C102.78 100.864 95.6942 98.3062 93.5156 90.9972L100.683 87.8503Z" fill="#FFD220"/>
</svg>
